<svg width="342" height="108" viewBox="0 0 342 108" fill="none" xmlns="http://www.w3.org/2000/svg" xmlns:xlink="http://www.w3.org/1999/xlink">
<line x1="0" y1="106.834" x2="342" y2="106.834" stroke="#AFAFAF" stroke-width="1.166" stroke-miterlimit="3.999327" stroke-dasharray="3.497 3.497 "/>
<path d="M76.367,37.035C65.951,53.008 45.016,68.479 34.814,74.789L34.814,108L311.282,108L311.282,78.241L281.814,8.892C280.288,5.3 275.286,5.06 273.424,8.49L243.04,64.434L208.627,43.148L180.047,69.612L146.218,58.105L111.222,64.434L84.434,36.054C82.174,33.661 78.165,34.279 76.367,37.035Z" fill="url(#pf_0_64_25408)"/>
<path d="M33.897,73.071C33.075,73.577 32.819,74.655 33.326,75.477C33.833,76.299 34.91,76.554 35.732,76.047L33.897,73.071ZM309.672,78.686C310.052,79.574 311.078,79.987 311.966,79.609C312.856,79.23 313.268,78.203 312.89,77.314L309.672,78.686ZM274.58,6.344L276.114,7.18L274.58,6.344ZM280.868,6.646L282.476,5.96L280.868,6.646ZM239.898,62.298L240.816,60.81L239.898,62.298ZM244.804,60.995L246.34,61.831L244.804,60.995ZM206.678,44.814L207.864,46.099L206.678,44.814ZM210.886,44.407L211.803,42.919L210.886,44.407ZM178.079,68.73L177.517,70.386L178.079,68.73ZM181.574,67.987L180.388,66.703L180.388,66.703L181.574,67.987ZM145.329,58.087L145.64,59.808L145.329,58.087ZM147.073,58.217L147.635,56.56L147.073,58.217ZM113.083,63.9L112.772,62.179L112.772,62.179L113.083,63.9ZM77.284,35.474L78.775,36.387L77.284,35.474ZM83.252,34.695L81.982,35.898L83.252,34.695ZM35.732,76.047C41.062,72.761 49.24,67.044 57.359,60.074C65.461,53.118 73.609,44.828 78.775,36.387L75.792,34.561C70.904,42.548 63.072,50.56 55.081,57.42C47.107,64.265 39.078,69.876 33.897,73.071L35.732,76.047ZM81.982,35.898L108.653,64.065L111.192,61.66L84.522,33.493L81.982,35.898ZM113.393,65.621L145.64,59.808L145.019,56.366L112.772,62.179L113.393,65.621ZM146.511,59.873L177.517,70.386L178.641,67.074L147.635,56.56L146.511,59.873ZM182.761,69.272L207.864,46.099L205.491,43.53L180.388,66.703L182.761,69.272ZM209.968,45.896L238.98,63.787L240.816,60.81L211.803,42.919L209.968,45.896ZM246.34,61.831L276.114,7.18L273.044,5.507L243.27,60.158L246.34,61.831ZM279.258,7.331L309.672,78.686L312.89,77.314L282.476,5.96L279.258,7.331ZM276.114,7.18C276.814,5.897 278.686,5.987 279.258,7.331L282.476,5.96C280.756,1.926 275.142,1.656 273.044,5.507L276.114,7.18ZM238.98,63.787C241.54,65.366 244.902,64.473 246.34,61.831L243.27,60.158C242.79,61.038 241.67,61.336 240.816,60.81L238.98,63.787ZM207.864,46.099C208.44,45.567 209.3,45.484 209.968,45.896L211.803,42.919C209.801,41.684 207.22,41.934 205.491,43.53L207.864,46.099ZM177.517,70.386C179.337,71.003 181.349,70.576 182.761,69.272L180.388,66.703C179.918,67.137 179.247,67.279 178.641,67.074L177.517,70.386ZM145.64,59.808C145.931,59.755 146.231,59.778 146.511,59.873L147.635,56.56C146.793,56.275 145.893,56.208 145.019,56.366L145.64,59.808ZM108.653,64.065C109.869,65.35 111.651,65.935 113.393,65.621L112.772,62.179C112.192,62.284 111.598,62.089 111.192,61.66L108.653,64.065ZM78.775,36.387C79.529,35.155 81.167,35.036 81.982,35.898L84.522,33.493C81.949,30.776 77.612,31.589 75.792,34.561L78.775,36.387Z" fill="#3AB37E"/>
<defs>
<linearGradient id="pf_0_64_25408" x1="173.048" y1="26.869" x2="173.048" y2="108" gradientUnits="userSpaceOnUse">
<stop stop-color="#3AB37E"/>
<stop offset="1" stop-color="#D9D9D9" stop-opacity="0"/>
</linearGradient>
</defs>
</svg>
